<svg width="549" height="651" viewBox="0 0 549 651" fill="none" xmlns="http://www.w3.org/2000/svg">
<path d="M41.5616 650L56.9216 616.4H60.4256L75.7856 650H72.0416L57.9296 618.464H59.3696L45.2576 650H41.5616ZM47.6096 641.024L48.6656 638.144H68.2016L69.2576 641.024H47.6096Z" fill="#003A46"/>
<path d="M95.7439 650V616.4H108.32C111.168 616.4 113.616 616.864 115.664 617.792C117.712 618.688 119.28 620 120.368 621.728C121.488 623.424 122.048 625.488 122.048 627.92C122.048 630.288 121.488 632.336 120.368 634.064C119.28 635.76 117.712 637.072 115.664 638C113.616 638.928 111.168 639.392 108.32 639.392H97.7119L99.2959 637.712V650H95.7439ZM99.2959 638L97.7119 636.272H108.224C111.584 636.272 114.128 635.552 115.856 634.112C117.616 632.64 118.496 630.576 118.496 627.92C118.496 625.232 117.616 623.152 115.856 621.68C114.128 620.208 111.584 619.472 108.224 619.472H97.7119L99.2959 617.792V638Z" fill="#003A46"/>
<path d="M137.065 650L152.425 616.4H155.929L171.289 650H167.545L153.433 618.464H154.873L140.761 650H137.065ZM143.113 641.024L144.169 638.144H163.705L164.761 641.024H143.113Z" fill="#003A46"/>
<path d="M191.247 650V616.4H203.823C206.671 616.4 209.119 616.864 211.167 617.792C213.215 618.688 214.783 620 215.871 621.728C216.991 623.424 217.551 625.488 217.551 627.92C217.551 630.288 216.991 632.336 215.871 634.064C214.783 635.76 213.215 637.072 211.167 638C209.119 638.896 206.671 639.344 203.823 639.344H193.215L194.799 637.712V650H191.247ZM214.191 650L205.551 637.808H209.391L218.079 650H214.191ZM194.799 638L193.215 636.32H203.727C207.087 636.32 209.631 635.584 211.359 634.112C213.119 632.64 213.999 630.576 213.999 627.92C213.999 625.232 213.119 623.152 211.359 621.68C209.631 620.208 207.087 619.472 203.727 619.472H193.215L194.799 617.792V638Z" fill="#003A46"/>
<path d="M246.394 650V619.472H234.586V616.4H261.754V619.472H249.946V650H246.394Z" fill="#003A46"/>
<path d="M281.828 650V616.4H284.756L300.116 642.608H298.58L313.796 616.4H316.724V650H313.316V621.728H314.132L300.116 645.728H298.436L284.324 621.728H285.236V650H281.828Z" fill="#003A46"/>
<path d="M345.24 631.424H363V634.448H345.24V631.424ZM345.624 646.928H365.832V650H342.072V616.4H365.112V619.472H345.624V646.928Z" fill="#003A46"/>
<path d="M388.581 650V616.4H391.509L414.693 645.584H413.157V616.4H416.661V650H413.733L390.597 620.816H392.133V650H388.581Z" fill="#003A46"/>
<path d="M448.556 650V619.472H436.748V616.4H463.916V619.472H452.108V650H448.556Z" fill="#003A46"/>
<path d="M492.739 650.288C490.243 650.288 487.843 649.888 485.539 649.088C483.267 648.256 481.507 647.2 480.259 645.92L481.651 643.184C482.835 644.336 484.419 645.312 486.403 646.112C488.419 646.88 490.531 647.264 492.739 647.264C494.851 647.264 496.563 647.008 497.875 646.496C499.219 645.952 500.195 645.232 500.803 644.336C501.443 643.44 501.763 642.448 501.763 641.36C501.763 640.048 501.379 638.992 500.611 638.192C499.875 637.392 498.899 636.768 497.683 636.32C496.467 635.84 495.123 635.424 493.651 635.072C492.179 634.72 490.707 634.352 489.235 633.968C487.763 633.552 486.403 633.008 485.155 632.336C483.939 631.664 482.947 630.784 482.179 629.696C481.443 628.576 481.075 627.12 481.075 625.328C481.075 623.664 481.507 622.144 482.371 620.768C483.267 619.36 484.627 618.24 486.451 617.408C488.275 616.544 490.611 616.112 493.459 616.112C495.347 616.112 497.219 616.384 499.075 616.928C500.931 617.44 502.531 618.16 503.875 619.088L502.675 621.92C501.235 620.96 499.699 620.256 498.067 619.808C496.467 619.36 494.915 619.136 493.411 619.136C491.395 619.136 489.731 619.408 488.419 619.952C487.107 620.496 486.131 621.232 485.491 622.16C484.883 623.056 484.579 624.08 484.579 625.232C484.579 626.544 484.947 627.6 485.683 628.4C486.451 629.2 487.443 629.824 488.659 630.272C489.907 630.72 491.267 631.12 492.739 631.472C494.211 631.824 495.667 632.208 497.107 632.624C498.579 633.04 499.923 633.584 501.139 634.256C502.387 634.896 503.379 635.76 504.115 636.848C504.883 637.936 505.267 639.36 505.267 641.12C505.267 642.752 504.819 644.272 503.923 645.68C503.027 647.056 501.651 648.176 499.795 649.04C497.971 649.872 495.619 650.288 492.739 650.288Z" fill="#003A46"/>
<path d="M62.968 585V517.8H95.8C104.248 517.8 110.584 519.4 114.808 522.6C119.096 525.8 121.24 530.024 121.24 535.272C121.24 538.792 120.376 541.864 118.648 544.488C116.92 547.048 114.552 549.032 111.544 550.44C108.536 551.848 105.08 552.552 101.176 552.552L103 548.616C107.224 548.616 110.968 549.32 114.232 550.728C117.496 552.072 120.024 554.088 121.816 556.776C123.672 559.464 124.6 562.76 124.6 566.664C124.6 572.424 122.328 576.936 117.784 580.2C113.24 583.4 106.552 585 97.72 585H62.968ZM78.424 573.288H96.568C100.6 573.288 103.64 572.648 105.688 571.368C107.8 570.024 108.856 567.912 108.856 565.032C108.856 562.216 107.8 560.136 105.688 558.792C103.64 557.384 100.6 556.68 96.568 556.68H77.272V545.352H93.88C97.656 545.352 100.536 544.712 102.52 543.432C104.568 542.088 105.592 540.072 105.592 537.384C105.592 534.76 104.568 532.808 102.52 531.528C100.536 530.184 97.656 529.512 93.88 529.512H78.424V573.288Z" fill="#003A46"/>
<path d="M145.974 585V517.8H175.062C181.078 517.8 186.262 518.792 190.614 520.776C194.966 522.696 198.326 525.48 200.694 529.128C203.062 532.776 204.246 537.128 204.246 542.184C204.246 547.176 203.062 551.496 200.694 555.144C198.326 558.728 194.966 561.48 190.614 563.4C186.262 565.32 181.078 566.28 175.062 566.28H154.614L161.526 559.464V585H145.974ZM188.694 585L171.894 560.616H188.502L205.494 585H188.694ZM161.526 561.192L154.614 553.896H174.198C178.998 553.896 182.582 552.872 184.95 550.824C187.318 548.712 188.502 545.832 188.502 542.184C188.502 538.472 187.318 535.592 184.95 533.544C182.582 531.496 178.998 530.472 174.198 530.472H154.614L161.526 523.08V561.192Z" fill="#003A46"/>
<path d="M256.024 586.152C246.488 586.152 239.032 583.496 233.656 578.184C228.28 572.872 225.592 565.288 225.592 555.432V517.8H241.144V554.856C241.144 561.256 242.456 565.864 245.08 568.68C247.704 571.496 251.384 572.904 256.12 572.904C260.856 572.904 264.536 571.496 267.16 568.68C269.784 565.864 271.096 561.256 271.096 554.856V517.8H286.456V555.432C286.456 565.288 283.768 572.872 278.392 578.184C273.016 583.496 265.56 586.152 256.024 586.152Z" fill="#003A46"/>
<path d="M311.424 585V517.8H324.288L363.936 566.184H357.696V517.8H373.056V585H360.288L320.544 536.616H326.784V585H311.424Z" fill="#003A46"/>
<path d="M398.555 585V517.8H414.107V585H398.555Z" fill="#003A46"/>
<path d="M461.736 586.152C456.36 586.152 451.208 585.448 446.28 584.04C441.352 582.568 437.383 580.68 434.375 578.376L439.655 566.664C442.535 568.712 445.928 570.408 449.832 571.752C453.8 573.032 457.8 573.672 461.832 573.672C464.904 573.672 467.368 573.384 469.224 572.808C471.144 572.168 472.552 571.304 473.448 570.216C474.344 569.128 474.792 567.88 474.792 566.472C474.792 564.68 474.088 563.272 472.68 562.248C471.272 561.16 469.416 560.296 467.112 559.656C464.808 558.952 462.247 558.312 459.431 557.736C456.679 557.096 453.895 556.328 451.079 555.432C448.327 554.536 445.8 553.384 443.496 551.976C441.192 550.568 439.304 548.712 437.832 546.408C436.424 544.104 435.72 541.16 435.72 537.576C435.72 533.736 436.744 530.248 438.792 527.112C440.904 523.912 444.039 521.384 448.199 519.528C452.423 517.608 457.703 516.648 464.039 516.648C468.263 516.648 472.424 517.16 476.52 518.184C480.616 519.144 484.231 520.616 487.367 522.6L482.568 534.408C479.432 532.616 476.296 531.304 473.16 530.472C470.024 529.576 466.952 529.128 463.944 529.128C460.936 529.128 458.472 529.48 456.552 530.184C454.632 530.888 453.255 531.816 452.423 532.968C451.591 534.056 451.176 535.336 451.176 536.808C451.176 538.536 451.88 539.944 453.288 541.032C454.696 542.056 456.551 542.888 458.855 543.528C461.159 544.168 463.688 544.808 466.44 545.448C469.256 546.088 472.04 546.824 474.792 547.656C477.608 548.488 480.167 549.608 482.471 551.016C484.775 552.424 486.631 554.28 488.039 556.584C489.511 558.888 490.247 561.8 490.247 565.32C490.247 569.096 489.191 572.552 487.079 575.688C484.967 578.824 481.8 581.352 477.576 583.272C473.416 585.192 468.136 586.152 461.736 586.152Z" fill="#003A46"/>
<path d="M438.236 419.579C450.249 395.289 457 367.933 457 339C457 238.484 375.516 157 275 157C174.484 157 93 238.484 93 339C93 357.667 95.8103 375.678 101.031 392.632C134.466 387.906 172.93 386.281 213 391.5C229.167 393.5 269.6 399.1 302 405.5C325.333 410.333 382.1 420 422.5 420C426.735 420.059 432.072 419.943 438.236 419.579Z" fill="#4CAFB8"/>
<path d="M212.5 391.5C117.3 379.1 31.1667 405.333 0 420L27 414.5C61.8 406.5 127.833 405.167 156.5 405.5C216.9 409.1 278.333 423 301.5 429.5C365.1 441.1 408.333 442.667 422 442C485.6 441.2 533.167 408 549 391.5C504.6 415.1 445.833 420.333 422 420C381.6 420 324.833 410.333 301.5 405.5C269.1 399.1 228.667 393.5 212.5 391.5Z" fill="#003A46"/>
<path d="M215.729 425.677C151.32 404.347 88.0436 410.994 64.4562 416.983L83.9276 416.786C109.146 415.901 155.148 423.814 174.997 427.881C216.431 438.457 257.206 456.307 272.415 463.91C315.001 480.456 344.793 487.327 354.366 488.694C398.609 496.651 436.053 480.018 449.244 470.707C415.28 481.113 373.8 476.874 357.305 473.454C329.269 468.048 291.167 453.755 275.62 447.285C253.991 438.515 226.68 429.225 215.729 425.677Z" fill="#003A46"/>
<path d="M145.045 178.803C218.691 282.244 239.171 374.509 240.206 407.712L261.189 393.223C250.116 299.488 186.036 206.463 155.38 171.667L145.045 178.803Z" fill="#003A46"/>
<path d="M142.312 179.827C83.1311 216.603 114.553 282.556 137.661 310.935C59.957 238.072 91.104 188.061 116.391 172.164C35.4399 156.887 37.4429 237.75 48.5632 280.091C-12.1333 147.944 73.1433 138.829 123.369 150.79C88.8338 106.166 40.4812 113.958 20.6217 123.432C74.2002 84.7674 119.226 116.752 135.042 137.577C176.828 97.5185 223.845 108.493 242.13 118.988C200.901 112.038 162.963 133.724 149.148 145.436C217.026 110.301 254.108 158.315 264.164 186.714C237.693 149.293 190.182 149.196 169.736 153.824C231.215 154.064 233.242 208.303 226.571 235.393C218.669 161.985 167.106 167.762 142.312 179.827Z" fill="#003A46"/>
<path d="M379.884 106.035C289.816 246.447 268.801 368.819 269.552 412.454L241.097 394.774C249.675 271.071 327.853 144.933 365.869 97.3265L379.884 106.035Z" fill="#003A46"/>
<path d="M361.478 97.3811C436.391 149.985 390.311 234.175 357.907 269.695C465.204 179.855 428.038 111.959 396.043 89.2416C503.351 75.1744 494.759 181.092 477.05 235.81C566.411 66.9527 455.228 48.7073 388.467 60.6917C437.057 4.70755 499.905 18.4944 525.255 32.3858C457.83 -22.2816 396.411 16.3505 374.129 42.4999C322.274 -13.1262 259.795 -2.19919 235.036 10.2176C289.628 4.14352 337.79 35.3864 355.047 51.7671C268.606 0.675011 216.425 60.9187 201.139 97.427C238.622 50.2961 300.947 53.6723 327.424 61.2518C246.766 57.0314 240.106 128.026 246.859 164.051C262.638 68.3466 329.846 79.7276 361.478 97.3811Z" fill="#003A46"/>
</svg>
