<svg width="928" height="1084" viewBox="0 0 928 1084" fill="none" xmlns="http://www.w3.org/2000/svg">
<path d="M45.104 1037.1C32.88 1037.1 23.408 1036.42 16.688 1035.08C14.96 1003.02 13.392 983.624 11.984 976.904L9.104 977.576C7.568 977.896 6.096 978.248 4.688 978.632C3.28 978.952 1.776 979.432 0.176 980.072L0.0799999 976.808C0.0799999 975.72 1.264 974.728 3.632 973.832C6 972.872 8.848 972.136 12.176 971.624C15.568 971.048 18.576 970.76 21.2 970.76C24.08 970.76 27.376 971.272 31.088 972.296C34.864 973.32 38.096 974.856 40.784 976.904C43.472 978.888 44.816 981.256 44.816 984.008C44.816 987.144 43.6 989.928 41.168 992.36C38.8 994.728 35.696 996.424 31.856 997.448C37.488 998.408 42.736 1000.14 47.6 1002.63C52.464 1005.06 56.368 1008.1 59.312 1011.75C62.256 1015.34 63.728 1019.21 63.728 1023.37C63.728 1028.17 61.872 1031.66 58.16 1033.83C54.448 1036.01 50.096 1037.1 45.104 1037.1ZM42.608 1031.62C47.344 1031.62 50.992 1031.11 53.552 1030.09C56.112 1029 57.392 1026.7 57.392 1023.18C57.392 1019.46 56.272 1016.36 54.032 1013.86C51.856 1011.3 49.264 1009.32 46.256 1007.91C43.312 1006.44 39.632 1004.9 35.216 1003.3C31.696 1002.09 29.072 1001.03 27.344 1000.14C25.68 999.176 24.848 998.12 24.848 996.968C24.848 996.136 25.264 995.496 26.096 995.048C26.928 994.6 28.4 993.96 30.512 993.128C33.392 992.168 35.632 991.144 37.232 990.056C38.896 988.904 39.728 987.304 39.728 985.256C39.728 982.248 37.904 979.944 34.256 978.344C30.608 976.68 26.512 975.848 21.968 975.848C20.688 975.848 19.152 975.976 17.36 976.232C19.024 986.984 20.176 996.04 20.816 1003.4C21.456 1010.7 21.904 1019.18 22.16 1028.84C23.056 1029.74 25.328 1030.41 28.976 1030.86C32.624 1031.3 37.168 1031.56 42.608 1031.62ZM118.818 1040.26C118.37 1040.78 117.73 1041.03 116.898 1041.03C113.89 1041.03 109.09 1038.28 102.498 1032.78C95.9698 1027.21 90.1778 1021.67 85.1218 1016.17C85.4418 1017.9 86.0498 1020.81 86.9458 1024.9C87.3298 1026.5 87.6498 1028.04 87.9058 1029.51C88.2258 1030.98 88.3858 1032.14 88.3858 1032.97C88.3858 1034.82 87.7138 1035.94 86.3698 1036.33C86.0498 1037.16 85.1858 1035.08 83.7778 1030.09C82.4338 1025.1 81.1538 1019.34 79.9378 1012.81C78.7858 1006.22 78.2098 1000.71 78.2098 996.296C78.2098 994.056 78.4018 992.232 78.7858 990.824C79.6178 990.184 80.3218 989.864 80.8978 989.864C82.0498 989.864 82.8498 990.856 83.2978 992.84C83.7458 994.76 84.1618 997.8 84.5458 1001.96L84.7378 1004.17C87.2338 1004.04 90.6258 1003.5 94.9138 1002.54C99.2658 1001.58 103.138 1000.26 106.53 998.6C109.986 996.872 111.714 994.824 111.714 992.456C111.714 991.176 110.786 989.768 108.93 988.232C107.138 986.632 104.354 985.288 100.578 984.2C96.8658 983.112 92.2898 982.568 86.8498 982.568H83.7778C80.1298 982.568 77.2818 983.176 75.2338 984.392C73.1858 985.544 72.1618 988.04 72.1618 991.88C71.2018 991.88 70.3378 991.272 69.5698 990.056C68.8018 988.84 68.4178 987.72 68.4178 986.696C68.4178 982.728 70.3058 980.136 74.0818 978.92C77.9218 977.704 83.4258 977.096 90.5938 977.096C94.3698 977.096 98.3058 977.704 102.402 978.92C106.498 980.136 109.954 982.056 112.77 984.68C115.586 987.24 116.994 990.44 116.994 994.28C116.994 996.904 115.81 999.08 113.442 1000.81C111.138 1002.54 108.418 1003.88 105.282 1004.84C102.146 1005.8 98.3058 1006.79 93.7618 1007.82C89.9858 1008.65 87.5218 1009.26 86.3698 1009.64C91.2978 1016.3 96.0338 1021.48 100.578 1025.19C105.186 1028.9 109.986 1032.26 114.978 1035.27C116.706 1036.3 117.922 1037.06 118.626 1037.58C119.33 1038.09 119.682 1038.57 119.682 1039.02C119.682 1039.46 119.394 1039.88 118.818 1040.26ZM147.112 1037.1C139.56 1037.1 134.184 1033.7 130.984 1026.92C127.848 1020.14 126.024 1011.3 125.512 1000.42C125.448 999.464 125.416 998.088 125.416 996.296C125.416 992.648 125.864 989.832 126.76 987.848C127.72 985.8 129.48 984.776 132.04 984.776C132.744 984.776 133.288 984.968 133.672 985.352C134.056 985.672 134.248 986.12 134.248 986.696C134.248 987.912 133.512 989.096 132.04 990.248C131.208 990.248 130.632 990.792 130.312 991.88C130.056 992.968 129.928 994.632 129.928 996.872C129.928 998.92 129.96 1000.55 130.024 1001.77C130.408 1011.3 132.168 1018.86 135.304 1024.42C138.44 1029.93 142.792 1032.68 148.36 1032.68C151.56 1032.68 154.44 1031.91 157 1030.38C159.56 1028.84 161.544 1026.79 162.952 1024.23C164.424 1021.61 165.16 1018.79 165.16 1015.78C164.52 1010.54 164.008 1006.86 163.624 1004.74C163.24 1002.63 162.536 999.208 161.512 994.472C161.064 992.616 160.84 990.984 160.84 989.576C160.84 988.104 161.128 987.08 161.704 986.504C162.28 985.928 163.144 985.64 164.296 985.64C165 985.64 165.544 986.056 165.928 986.888C166.312 987.72 166.664 989.352 166.984 991.784C167.304 994.216 167.72 998.184 168.232 1003.69C168.552 1006.82 169.16 1009.9 170.056 1012.9C171.016 1015.91 172.264 1019.37 173.8 1023.27C173.928 1023.66 174.28 1024.62 174.856 1026.15C175.432 1027.62 175.848 1028.84 176.104 1029.8C176.36 1030.76 176.488 1031.53 176.488 1032.1C176.488 1033.58 175.72 1034.31 174.184 1034.31C173.672 1034.31 171.784 1030.38 168.52 1022.5C167.816 1025.38 166.376 1027.94 164.2 1030.18C162.024 1032.36 159.432 1034.06 156.424 1035.27C153.416 1036.49 150.312 1037.1 147.112 1037.1ZM226.585 989.192C228.441 989.192 230.361 991.016 232.345 994.664C234.329 998.312 235.993 1002.5 237.337 1007.24C238.681 1011.91 239.353 1015.4 239.353 1017.7C239.353 1021.22 238.585 1024.39 237.049 1027.21C235.577 1029.96 233.465 1032.14 230.713 1033.74C227.961 1035.27 224.825 1036.04 221.305 1036.04C216.441 1036.04 212.217 1034.73 208.633 1032.1C205.113 1029.48 202.297 1026.47 200.185 1023.08C198.073 1019.62 195.897 1015.5 193.657 1010.7L192.312 1007.82L192.505 1031.05C192.505 1032.46 192.249 1033.83 191.737 1035.18C191.289 1036.46 190.489 1037.1 189.337 1037.1C188.185 1037.1 187.353 1036.46 186.841 1035.18C186.329 1033.83 186.073 1032.52 186.073 1031.24C186.073 1027.14 186.393 1021.26 187.033 1013.58C187.673 1005.9 187.993 1000.17 187.993 996.392C187.993 995.496 187.929 994.568 187.801 993.608C187.673 992.648 187.577 991.976 187.513 991.592C187.193 989.864 187.033 988.328 187.033 986.984V986.6C187.225 986.6 187.801 986.472 188.761 986.216C189.785 985.896 190.393 985.736 190.585 985.736H191.545C193.977 996.68 197.561 1006.79 202.297 1016.07C207.097 1025.29 213.657 1029.9 221.977 1029.9C225.881 1029.9 228.825 1028.74 230.809 1026.44C232.857 1024.07 233.881 1020.9 233.881 1016.94C233.881 1013.54 233.337 1010.44 232.249 1007.62C231.161 1004.74 229.529 1001.22 227.353 997.064L224.761 991.976C224.569 991.656 224.473 991.336 224.473 991.016C224.473 990.504 224.665 990.088 225.049 989.768C225.433 989.384 225.945 989.192 226.585 989.192ZM192.505 1031.05V1030.86V1031.05ZM261.03 1037C260.198 1037.32 259.398 1037.13 258.63 1036.42C257.926 1035.72 257.542 1034.73 257.478 1033.45C257.222 1031.59 256.934 1029.32 256.614 1026.63C256.358 1023.94 256.166 1021.96 256.038 1020.68C255.91 1019.4 255.622 1016.94 255.174 1013.29C254.79 1009.58 254.374 1006.38 253.926 1003.69C253.798 1002.79 253.382 1001.19 252.678 998.888C250.822 992.296 249.894 987.528 249.894 984.584C250.342 983.944 250.79 983.624 251.238 983.624C252.902 983.624 254.63 986.952 256.422 993.608C258.214 1000.26 259.718 1007.78 260.934 1016.17C262.214 1024.49 262.854 1030.18 262.854 1033.26C262.854 1033.38 262.854 1033.8 262.854 1034.5C262.854 1035.14 262.694 1035.69 262.374 1036.14C262.118 1036.58 261.67 1036.87 261.03 1037ZM302.824 1033.35C308.072 1033.35 312.136 1032.62 315.016 1031.14C317.896 1029.67 319.336 1027.53 319.336 1024.71C319.336 1022.22 318.472 1020.07 316.744 1018.28C315.016 1016.42 312.872 1014.86 310.312 1013.58C307.752 1012.3 304.264 1010.79 299.848 1009.06C299.464 1008.94 298.536 1008.58 297.064 1008.01C291.048 1005.58 286.408 1003.14 283.144 1000.71C279.944 998.28 278.344 995.144 278.344 991.304C278.344 987.016 280.04 983.784 283.432 981.608C286.824 979.432 291.176 978.344 296.488 978.344C300.392 978.344 303.976 978.856 307.24 979.88C310.568 980.84 313.192 982.184 315.112 983.912C317.096 985.64 318.088 987.592 318.088 989.768C317.32 990.152 316.584 990.344 315.88 990.344C315.112 990.344 314.312 990.184 313.48 989.864C312.712 989.48 311.56 988.872 310.024 988.04C307.528 986.696 305.192 985.64 303.016 984.872C300.84 984.04 298.28 983.624 295.336 983.624C291.624 983.624 288.616 984.264 286.312 985.544C284.008 986.824 282.856 988.616 282.856 990.92C282.856 992.712 283.624 994.344 285.16 995.816C286.76 997.288 288.744 998.6 291.112 999.752C293.544 1000.84 296.776 1002.15 300.808 1003.69C305.928 1005.67 310.152 1007.53 313.48 1009.26C316.808 1010.98 319.624 1013.19 321.927 1015.88C324.296 1018.5 325.48 1021.64 325.48 1025.29C325.48 1029.58 323.432 1032.9 319.336 1035.27C315.24 1037.58 310.152 1038.73 304.072 1038.73C299.272 1038.73 294.536 1038.02 289.864 1036.62C285.192 1035.21 281.192 1033.13 277.864 1030.38C274.536 1027.56 272.424 1024.2 271.528 1020.3C271.528 1018.57 272.008 1017.1 272.968 1015.88C273.928 1014.6 275.112 1013.96 276.52 1013.96C276.52 1018.12 277.672 1021.67 279.976 1024.62C282.344 1027.5 285.512 1029.67 289.48 1031.14C293.512 1032.62 297.96 1033.35 302.824 1033.35ZM402.241 1037.1C401.473 1037.1 400.929 1036.9 400.609 1036.52C400.353 1036.14 400.225 1035.59 400.225 1034.89C400.225 1033.48 400.545 1031.3 401.185 1028.36C401.889 1025.67 402.241 1023.46 402.241 1021.74C402.241 1016.74 401.857 1012.94 401.089 1010.31H398.113C395.489 1010.31 392.065 1010.25 387.841 1010.12L378.817 1010.02H365.857L366.049 1013.77C366.049 1016.71 366.529 1020.39 367.489 1024.81C367.809 1026.6 368.097 1028.42 368.353 1030.28C368.673 1032.07 368.833 1033.7 368.833 1035.18V1036.04C368.193 1036.68 367.521 1037 366.817 1037C365.153 1037 363.841 1035.05 362.881 1031.14C361.921 1027.18 361.441 1022.41 361.441 1016.84C361.441 1014.6 361.537 1012.39 361.729 1010.22C360.321 1010.15 359.361 1009.93 358.849 1009.54C358.337 1009.1 358.081 1008.42 358.081 1007.53C358.081 1006.82 358.273 1006.34 358.657 1006.09C359.105 1005.83 359.873 1005.64 360.961 1005.51L360.865 1002.92L361.153 998.504C361.601 991.272 362.273 985.384 363.169 980.84C364.065 976.296 365.985 972.36 368.929 969.032C371.873 965.704 376.289 964.04 382.177 964.04C388.897 964.04 394.145 967.656 397.921 974.888C401.697 982.12 404.257 990.184 405.601 999.08C406.945 1007.98 407.617 1015.62 407.617 1022.02C407.617 1024.33 407.553 1026.34 407.425 1028.07C407.297 1029.74 407.041 1031.82 406.657 1034.31C405.185 1036.17 403.713 1037.1 402.241 1037.1ZM400.705 1006.57C399.489 994.728 397.313 985.448 394.177 978.728C391.041 971.944 386.337 968.552 380.065 968.552C375.393 968.552 371.937 970.728 369.697 975.08C367.521 979.368 366.209 983.976 365.761 988.904C365.313 993.832 365.089 999.368 365.089 1005.51L400.705 1006.57ZM429.91 1033.16C428.694 1028.3 427.766 1023.4 427.126 1018.47C426.486 1013.48 425.91 1005.29 425.398 993.896C425.398 993.128 425.654 992.456 426.166 991.88C426.742 991.304 427.382 991.016 428.086 991.016H428.95C429.27 993.128 429.494 996.52 429.622 1001.19C429.622 1001.7 429.686 1003.43 429.814 1006.38C429.942 1009.26 430.262 1011.98 430.774 1014.54C438.198 1013.83 444.118 1012.39 448.534 1010.22C453.014 1008.04 455.254 1004.94 455.254 1000.9C455.254 995.848 453.014 991.72 448.534 988.52C444.054 985.32 437.302 983.72 428.278 983.72C424.502 983.72 421.302 984.424 418.678 985.832C418.23 986.024 417.91 986.44 417.718 987.08C417.526 987.656 417.366 988.488 417.238 989.576C417.11 990.728 416.95 991.592 416.758 992.168C416.566 992.744 416.214 993.032 415.702 993.032C415.126 993.032 414.742 992.616 414.55 991.784C414.422 990.888 414.358 988.872 414.358 985.736C414.358 983.944 415.574 982.536 418.006 981.512C420.438 980.488 423.574 979.976 427.414 979.976C438.614 979.976 446.934 981.736 452.374 985.256C457.814 988.776 460.534 994.184 460.534 1001.48C460.534 1005.38 458.966 1008.65 455.83 1011.27C452.694 1013.9 448.886 1015.85 444.406 1017.13C439.926 1018.34 435.638 1018.95 431.542 1018.95C431.67 1019.72 431.798 1020.42 431.926 1021.06C432.054 1021.7 432.15 1022.25 432.214 1022.7C433.11 1027.05 433.558 1030.41 433.558 1032.78C433.558 1034.18 433.366 1035.3 432.982 1036.14C432.662 1036.97 431.926 1037.26 430.774 1037L429.91 1033.16ZM511.179 1037.1C510.411 1037.1 509.867 1036.9 509.547 1036.52C509.291 1036.14 509.163 1035.59 509.163 1034.89C509.163 1033.48 509.483 1031.3 510.123 1028.36C510.827 1025.67 511.179 1023.46 511.179 1021.74C511.179 1016.74 510.795 1012.94 510.027 1010.31H507.051C504.427 1010.31 501.003 1010.25 496.779 1010.12L487.755 1010.02H474.795L474.987 1013.77C474.987 1016.71 475.467 1020.39 476.427 1024.81C476.747 1026.6 477.035 1028.42 477.291 1030.28C477.611 1032.07 477.771 1033.7 477.771 1035.18V1036.04C477.131 1036.68 476.459 1037 475.755 1037C474.091 1037 472.779 1035.05 471.819 1031.14C470.859 1027.18 470.379 1022.41 470.379 1016.84C470.379 1014.6 470.475 1012.39 470.667 1010.22C469.259 1010.15 468.299 1009.93 467.787 1009.54C467.275 1009.1 467.019 1008.42 467.019 1007.53C467.019 1006.82 467.211 1006.34 467.595 1006.09C468.043 1005.83 468.811 1005.64 469.899 1005.51L469.803 1002.92L470.091 998.504C470.539 991.272 471.211 985.384 472.107 980.84C473.003 976.296 474.923 972.36 477.867 969.032C480.811 965.704 485.227 964.04 491.115 964.04C497.835 964.04 503.083 967.656 506.859 974.888C510.635 982.12 513.195 990.184 514.539 999.08C515.883 1007.98 516.555 1015.62 516.555 1022.02C516.555 1024.33 516.491 1026.34 516.363 1028.07C516.235 1029.74 515.979 1031.82 515.595 1034.31C514.123 1036.17 512.651 1037.1 511.179 1037.1ZM509.643 1006.57C508.427 994.728 506.251 985.448 503.115 978.728C499.979 971.944 495.275 968.552 489.003 968.552C484.331 968.552 480.875 970.728 478.635 975.08C476.459 979.368 475.147 983.976 474.699 988.904C474.251 993.832 474.027 999.368 474.027 1005.51L509.643 1006.57ZM573.599 1040.26C573.151 1040.78 572.511 1041.03 571.679 1041.03C568.671 1041.03 563.871 1038.28 557.279 1032.78C550.751 1027.21 544.959 1021.67 539.903 1016.17C540.223 1017.9 540.831 1020.81 541.727 1024.9C542.111 1026.5 542.431 1028.04 542.687 1029.51C543.007 1030.98 543.167 1032.14 543.167 1032.97C543.167 1034.82 542.495 1035.94 541.151 1036.33C540.831 1037.16 539.967 1035.08 538.559 1030.09C537.215 1025.1 535.935 1019.34 534.719 1012.81C533.567 1006.22 532.991 1000.71 532.991 996.296C532.991 994.056 533.183 992.232 533.567 990.824C534.399 990.184 535.103 989.864 535.679 989.864C536.831 989.864 537.631 990.856 538.079 992.84C538.527 994.76 538.943 997.8 539.327 1001.96L539.519 1004.17C542.015 1004.04 545.407 1003.5 549.695 1002.54C554.047 1001.58 557.919 1000.26 561.311 998.6C564.767 996.872 566.495 994.824 566.495 992.456C566.495 991.176 565.567 989.768 563.711 988.232C561.919 986.632 559.135 985.288 555.359 984.2C551.647 983.112 547.071 982.568 541.631 982.568H538.559C534.911 982.568 532.063 983.176 530.015 984.392C527.967 985.544 526.943 988.04 526.943 991.88C525.983 991.88 525.119 991.272 524.351 990.056C523.583 988.84 523.199 987.72 523.199 986.696C523.199 982.728 525.087 980.136 528.863 978.92C532.703 977.704 538.207 977.096 545.375 977.096C549.151 977.096 553.087 977.704 557.183 978.92C561.279 980.136 564.735 982.056 567.551 984.68C570.367 987.24 571.775 990.44 571.775 994.28C571.775 996.904 570.591 999.08 568.223 1000.81C565.919 1002.54 563.199 1003.88 560.063 1004.84C556.927 1005.8 553.087 1006.79 548.543 1007.82C544.767 1008.65 542.303 1009.26 541.151 1009.64C546.079 1016.3 550.815 1021.48 555.359 1025.19C559.967 1028.9 564.767 1032.26 569.759 1035.27C571.487 1036.3 572.703 1037.06 573.407 1037.58C574.111 1038.09 574.463 1038.57 574.463 1039.02C574.463 1039.46 574.175 1039.88 573.599 1040.26ZM607.942 1037.1C606.15 1037.1 604.902 1036.17 604.198 1034.31C603.494 1032.46 602.918 1029.96 602.47 1026.82L602.182 1024.42C601.222 1019.3 600.454 1014.22 599.878 1009.16C599.302 1004.04 598.726 997.864 598.15 990.632L597.574 983.528C593.734 983.592 588.262 983.432 581.158 983.048L579.238 982.952C578.342 982.888 577.702 982.472 577.318 981.704C576.998 980.872 576.838 979.752 576.838 978.344H583.462C594.598 978.344 604.646 978.76 613.606 979.592C622.566 980.424 627.046 982.12 627.046 984.68C627.046 985.384 626.918 985.864 626.662 986.12C626.47 986.376 626.022 986.504 625.318 986.504C622.758 986.312 618.79 985.768 613.414 984.872C612.198 984.68 610.726 984.456 608.998 984.2C607.27 983.944 605.318 983.688 603.142 983.432C603.142 992.712 604.518 1006.98 607.27 1026.25C607.398 1027.21 607.846 1028.58 608.614 1030.38C608.934 1031.14 609.222 1031.98 609.478 1032.87C609.798 1033.7 609.958 1034.47 609.958 1035.18C609.958 1036.07 609.83 1036.62 609.574 1036.81C609.318 1037 608.998 1037.1 608.614 1037.1C608.294 1037.1 608.07 1037.1 607.942 1037.1ZM678.333 997.448C678.333 1000.2 678.461 1002.89 678.717 1005.51C679.037 1008.07 679.517 1011.69 680.157 1016.36C681.373 1024.23 681.981 1030.5 681.981 1035.18C681.981 1036.14 681.789 1036.71 681.405 1036.9C681.021 1037.1 680.573 1037.19 680.061 1037.19C679.549 1037.19 679.197 1037.19 679.005 1037.19C678.109 1037.19 677.405 1037.1 676.893 1036.9C676.381 1036.65 675.965 1036.07 675.645 1035.18L673.629 1009.06C673.437 1006.44 673.181 1001.16 672.861 993.224C670.109 996.424 667.389 998.856 664.701 1000.52C662.013 1002.12 659.261 1002.92 656.445 1002.92C652.413 1002.92 648.381 1000.07 644.349 994.376C644.541 995.336 644.637 996.616 644.637 998.216C644.637 999.816 644.637 1000.74 644.637 1001L644.541 1032.39C644.541 1033.03 644.189 1033.54 643.485 1033.93C642.845 1034.25 642.173 1034.41 641.469 1034.41C640.573 1034.41 639.933 1034.09 639.549 1033.45C639.229 1032.74 638.973 1031.82 638.781 1030.66V1017.22C638.781 1015.18 638.845 1012.87 638.973 1010.31C639.101 1007.75 639.197 1005.96 639.261 1004.94C639.581 1000.46 639.741 996.392 639.741 992.744C639.741 991.656 639.549 990.632 639.165 989.672C638.781 988.648 638.205 987.528 637.437 986.312C636.669 985.096 636.093 984.04 635.709 983.144C635.389 982.248 635.229 981.288 635.229 980.264C635.229 979.048 635.837 978.44 637.053 978.44C638.973 978.44 640.541 979.144 641.757 980.552C642.973 981.896 644.285 983.944 645.693 986.696C646.909 988.936 647.965 990.696 648.861 991.976C649.757 993.256 650.909 994.376 652.317 995.336C653.725 996.232 655.421 996.68 657.405 996.68C660.285 996.808 662.653 996.264 664.509 995.048C666.365 993.768 667.773 992.232 668.733 990.44C669.693 988.648 670.621 986.472 671.517 983.912C672.285 981.8 672.957 980.328 673.533 979.496C674.109 978.6 674.813 978.248 675.645 978.44C677.565 978.312 678.525 980.072 678.525 983.72C678.525 986.792 678.493 989.064 678.429 990.536L678.333 997.448ZM712.549 1037.1C707.237 1037.1 703.365 1036.1 700.933 1034.12C698.565 1032.14 697.381 1028.55 697.381 1023.37L698.725 1001.86V981.224C698.725 979.624 699.045 978.6 699.685 978.152C700.325 977.64 701.733 977.384 703.909 977.384L710.437 977.576C718.629 978.024 726.629 978.248 734.437 978.248C736.101 978.248 737.413 978.728 738.373 979.688C739.397 980.648 739.909 981.96 739.909 983.624C739.909 983.944 739.813 984.2 739.621 984.392C739.429 984.584 739.205 984.648 738.949 984.584L734.437 982.856L704.389 983.624C704.005 983.624 703.781 983.592 703.717 983.528C703.973 984.04 704.101 984.488 704.101 984.872V1001.86C707.045 1002.06 709.893 1002.15 712.645 1002.15C717.381 1002.15 722.597 1001.93 728.293 1001.48C728.869 1001.42 729.733 1001.35 730.885 1001.29C732.101 1001.16 732.773 1001.16 732.901 1001.29C733.285 1001.67 733.573 1002.02 733.765 1002.34C733.957 1002.66 734.085 1003.11 734.149 1003.69C734.341 1005.1 732.197 1006.02 727.717 1006.47C723.301 1006.92 717.381 1007.27 709.957 1007.53C707.461 1007.53 705.381 1007.59 703.717 1007.72C702.949 1009.64 702.565 1012.71 702.565 1016.94L702.661 1022.6V1028.84C703.685 1029.67 704.805 1030.22 706.021 1030.47C707.237 1030.73 709.221 1030.86 711.973 1030.86C714.853 1030.86 717.669 1030.7 720.421 1030.38C723.237 1030.06 724.901 1029.86 725.413 1029.8C730.789 1029.16 734.789 1028.84 737.413 1028.84C738.949 1028.84 740.005 1029 740.581 1029.32C741.221 1029.58 741.541 1030.06 741.541 1030.76C741.541 1034.98 732.965 1037.1 715.813 1037.1H712.549ZM792.272 989.192C794.128 989.192 796.048 991.016 798.032 994.664C800.016 998.312 801.68 1002.5 803.024 1007.24C804.368 1011.91 805.04 1015.4 805.04 1017.7C805.04 1021.22 804.272 1024.39 802.736 1027.21C801.264 1029.96 799.152 1032.14 796.4 1033.74C793.648 1035.27 790.512 1036.04 786.992 1036.04C782.128 1036.04 777.904 1034.73 774.32 1032.1C770.8 1029.48 767.984 1026.47 765.872 1023.08C763.76 1019.62 761.584 1015.5 759.344 1010.7L758 1007.82L758.192 1031.05C758.192 1032.46 757.936 1033.83 757.424 1035.18C756.976 1036.46 756.176 1037.1 755.024 1037.1C753.872 1037.1 753.04 1036.46 752.528 1035.18C752.016 1033.83 751.76 1032.52 751.76 1031.24C751.76 1027.14 752.08 1021.26 752.72 1013.58C753.36 1005.9 753.68 1000.17 753.68 996.392C753.68 995.496 753.616 994.568 753.488 993.608C753.36 992.648 753.264 991.976 753.2 991.592C752.88 989.864 752.72 988.328 752.72 986.984V986.6C752.912 986.6 753.488 986.472 754.448 986.216C755.472 985.896 756.08 985.736 756.272 985.736H757.232C759.664 996.68 763.248 1006.79 767.984 1016.07C772.784 1025.29 779.344 1029.9 787.664 1029.9C791.568 1029.9 794.512 1028.74 796.496 1026.44C798.544 1024.07 799.568 1020.9 799.568 1016.94C799.568 1013.54 799.024 1010.44 797.936 1007.62C796.848 1004.74 795.216 1001.22 793.04 997.064L790.448 991.976C790.256 991.656 790.16 991.336 790.16 991.016C790.16 990.504 790.352 990.088 790.736 989.768C791.12 989.384 791.632 989.192 792.272 989.192ZM758.192 1031.05V1030.86V1031.05ZM844.285 1037.1C842.493 1037.1 841.245 1036.17 840.541 1034.31C839.837 1032.46 839.261 1029.96 838.813 1026.82L838.525 1024.42C837.565 1019.3 836.797 1014.22 836.221 1009.16C835.645 1004.04 835.069 997.864 834.493 990.632L833.917 983.528C830.077 983.592 824.605 983.432 817.501 983.048L815.581 982.952C814.685 982.888 814.045 982.472 813.661 981.704C813.341 980.872 813.181 979.752 813.181 978.344H819.805C830.941 978.344 840.989 978.76 849.949 979.592C858.909 980.424 863.389 982.12 863.389 984.68C863.389 985.384 863.261 985.864 863.005 986.12C862.813 986.376 862.365 986.504 861.661 986.504C859.101 986.312 855.133 985.768 849.757 984.872C848.541 984.68 847.069 984.456 845.341 984.2C843.613 983.944 841.661 983.688 839.485 983.432C839.485 992.712 840.861 1006.98 843.613 1026.25C843.741 1027.21 844.189 1028.58 844.957 1030.38C845.277 1031.14 845.565 1031.98 845.821 1032.87C846.141 1033.7 846.301 1034.47 846.301 1035.18C846.301 1036.07 846.173 1036.62 845.917 1036.81C845.661 1037 845.341 1037.1 844.957 1037.1C844.637 1037.1 844.413 1037.1 844.285 1037.1ZM900.949 1033.35C906.197 1033.35 910.261 1032.62 913.141 1031.14C916.021 1029.67 917.461 1027.53 917.461 1024.71C917.461 1022.22 916.597 1020.07 914.869 1018.28C913.141 1016.42 910.997 1014.86 908.437 1013.58C905.877 1012.3 902.389 1010.79 897.973 1009.06C897.589 1008.94 896.661 1008.58 895.189 1008.01C889.173 1005.58 884.533 1003.14 881.269 1000.71C878.069 998.28 876.469 995.144 876.469 991.304C876.469 987.016 878.165 983.784 881.557 981.608C884.949 979.432 889.301 978.344 894.613 978.344C898.517 978.344 902.101 978.856 905.365 979.88C908.693 980.84 911.317 982.184 913.237 983.912C915.221 985.64 916.213 987.592 916.213 989.768C915.445 990.152 914.709 990.344 914.005 990.344C913.237 990.344 912.437 990.184 911.605 989.864C910.837 989.48 909.685 988.872 908.149 988.04C905.653 986.696 903.317 985.64 901.141 984.872C898.965 984.04 896.405 983.624 893.461 983.624C889.749 983.624 886.741 984.264 884.437 985.544C882.133 986.824 880.981 988.616 880.981 990.92C880.981 992.712 881.749 994.344 883.285 995.816C884.885 997.288 886.869 998.6 889.237 999.752C891.669 1000.84 894.901 1002.15 898.933 1003.69C904.053 1005.67 908.277 1007.53 911.605 1009.26C914.933 1010.98 917.749 1013.19 920.052 1015.88C922.421 1018.5 923.605 1021.64 923.605 1025.29C923.605 1029.58 921.557 1032.9 917.461 1035.27C913.365 1037.58 908.277 1038.73 902.197 1038.73C897.397 1038.73 892.661 1038.02 887.989 1036.62C883.317 1035.21 879.317 1033.13 875.989 1030.38C872.661 1027.56 870.549 1024.2 869.653 1020.3C869.653 1018.57 870.133 1017.1 871.093 1015.88C872.053 1014.6 873.237 1013.96 874.645 1013.96C874.645 1018.12 875.797 1021.67 878.101 1024.62C880.469 1027.5 883.637 1029.67 887.605 1031.14C891.637 1032.62 896.085 1033.35 900.949 1033.35Z" fill="#80CBC4"/>
<path fill-rule="evenodd" clip-rule="evenodd" d="M214.203 507.404C163.834 525.38 94.3691 488.408 65.9329 467.675C26.4935 441.948 179.199 276.012 201.023 324.769C249.463 432.994 235.953 499.641 214.203 507.404ZM232.072 512.192C273.069 445.738 239.812 369.327 218.738 324.34C197.972 301.383 220.826 274.688 234.008 267.35C247.19 260.012 254.928 271.058 259.854 281.005C292.285 331.52 301.365 375.295 302.967 400.226C306.954 491.984 282.283 521.85 269.45 525.313C230.142 537.556 228.153 521.667 232.072 512.192ZM270.354 238.686L270.354 238.686L270.354 238.685C271.979 234.064 273.882 228.654 275.513 222.566C278.176 205.079 287.496 195.775 298.783 184.507C316.386 166.935 338.772 144.587 348.152 78.9742C351.15 59.4169 363.96 30.4107 391.224 70.8449C400.175 81.8707 411.234 122.897 383.856 198.798C377.937 202.216 368.169 217.163 376.452 249.613C404.653 296.337 450.687 409.163 409.214 486.67C402.813 506.695 366.44 541.984 295.34 529.145C330.375 508.509 356.641 316.981 266.972 254.442C265.821 251.574 267.724 246.164 270.354 238.686ZM565.212 312.097C510.64 268.486 382.435 238.793 405.913 257.507C460.886 301.326 466.273 389.631 453.376 428.104C452.623 430.916 450.457 436.385 447.813 443.061C438.649 466.198 423.748 503.822 442.055 495.47C613.689 426.75 596.318 344.761 565.212 312.097ZM577.734 425.709C599.812 403.845 632.385 349.248 586.058 305.777C579.648 297.502 575.738 284.791 611.38 300.139C614.97 303.172 618.524 306.403 622.059 309.618C639.726 325.681 656.939 341.332 675.889 329.847C693.156 327.227 729.957 305.408 739.029 239.096C748.1 172.785 767.279 218.023 775.734 248.931C779.446 268.561 791.068 353.98 685.701 366.64C755.699 373.246 757.688 386.276 760.256 403.11C762.394 417.117 764.933 433.757 807.377 451.525C900.241 490.398 827.632 492.735 783.847 494.144L783.009 494.171C752.439 495.156 732.031 468.032 713.655 443.608C694.681 418.39 677.872 396.05 654.278 410.502C602.651 442.124 563.084 443.677 577.734 425.709ZM177.997 402.975C181.785 388.838 173.396 374.307 159.259 370.519C145.122 366.731 130.591 375.12 126.803 389.257C123.015 403.394 131.404 417.925 145.541 421.713C159.678 425.501 174.209 417.112 177.997 402.975Z" fill="#80CBC4"/>
<path d="M100.002 742.352C63.9849 674.312 98.5938 636.204 120.4 625.655L122.348 639.636C127.823 667.502 217.48 701.878 270.939 653.051C313.707 613.989 356.16 600.311 372.041 598.354C449.408 584.713 487.67 595.691 497.131 602.884C566.798 585.524 600.956 604.995 609.326 616.9C665.478 589.707 697.665 614.343 706.739 630.061C756.391 608.58 767.996 631.981 767.593 646.366C807.696 615.701 819.076 642.907 819.753 660.343C796.786 715.788 692.842 831.839 460.791 852.484C228.741 873.128 123.578 787.664 100.002 742.352Z" fill="#E0CDA9"/>
<path d="M100.002 742.352C74.1783 693.568 84.6611 660.172 100.701 641.288M100.002 742.352C117.266 775.533 178.279 830.244 300.828 849.055M100.002 742.352C63.9849 674.312 98.5938 636.204 120.4 625.655L122.348 639.636C127.823 667.502 217.48 701.878 270.939 653.051C313.707 613.989 356.16 600.311 372.041 598.354C449.408 584.713 487.67 595.691 497.131 602.884M100.002 742.352C123.578 787.664 228.741 873.128 460.791 852.484C692.842 831.839 796.786 715.788 819.753 660.343C819.076 642.907 807.696 615.701 767.593 646.366M575.73 832.487C652.655 811.733 709.296 779.633 748.949 747.103M743.123 621.436C734.222 620.986 722.365 623.301 706.739 630.061M706.739 630.061C756.391 608.58 767.996 631.981 767.593 646.366M706.739 630.061C670.547 676.268 482.278 822.524 246.356 795.026M706.739 630.061C697.665 614.343 665.478 589.707 609.326 616.9M664.26 605.143C649.58 603.558 631.285 606.265 609.326 616.9M609.326 616.9C603.5 608.613 585.18 596.661 551.087 596.015M609.326 616.9C539.137 650.892 468.896 781.668 211.929 765.096M609.326 616.9C600.956 604.995 566.798 585.524 497.131 602.884M511.386 599.737C506.81 600.612 502.059 601.656 497.131 602.884M497.131 602.884C471.187 652.7 367.217 748.108 158.891 731.214M767.593 646.366C717.463 684.698 620.925 828.616 286.682 820.325" stroke="white" stroke-width="14" stroke-linecap="round" stroke-linejoin="round"/>
</svg>
